<svg xmlns="http://www.w3.org/2000/svg" viewBox="0 0 1991 390" width="1991" height="390" shape-rendering="geometricPrecision">
  <path fill="#ffffff" fill-rule="evenodd" d="M 1159 143 L 1159 329 L 1216 329 L 1216 143 Z M 905 141 L 884 140 L 869 145 L 856 156 L 851 163 L 845 176 L 844 143 L 787 143 L 787 329 L 844 329 L 844 228 L 846 219 L 853 204 L 862 195 L 870 191 L 887 189 L 898 191 L 906 195 Z M 1411 153 L 1411 196 L 1426 187 L 1444 180 L 1458 177 L 1477 176 L 1490 179 L 1501 188 L 1504 194 L 1506 207 L 1501 209 L 1465 213 L 1438 218 L 1419 226 L 1405 238 L 1397 252 L 1393 268 L 1394 293 L 1397 303 L 1405 316 L 1418 327 L 1433 333 L 1460 334 L 1475 330 L 1486 324 L 1496 315 L 1504 304 L 1505 329 L 1558 329 L 1558 202 L 1553 180 L 1544 163 L 1527 148 L 1510 141 L 1495 138 L 1458 139 L 1428 146 Z M 1506 242 L 1506 256 L 1504 268 L 1501 275 L 1492 286 L 1479 293 L 1467 294 L 1458 292 L 1449 285 L 1445 277 L 1445 264 L 1448 257 L 1454 251 L 1470 245 L 1499 241 Z M 1330 86 L 1277 102 L 1277 142 L 1247 143 L 1247 185 L 1277 186 L 1277 285 L 1281 302 L 1288 315 L 1300 326 L 1314 332 L 1324 334 L 1353 334 L 1368 331 L 1374 328 L 1374 286 L 1358 291 L 1348 290 L 1342 287 L 1335 278 L 1333 271 L 1333 186 L 1374 185 L 1374 143 L 1333 142 L 1333 86 Z M 611 63 L 586 68 L 564 77 L 545 90 L 524 113 L 511 136 L 503 160 L 499 186 L 499 217 L 505 249 L 512 267 L 524 287 L 544 308 L 558 318 L 586 330 L 608 334 L 639 334 L 664 329 L 687 319 L 703 308 L 723 287 L 738 261 L 746 236 L 750 203 L 749 176 L 744 150 L 732 121 L 716 99 L 703 87 L 690 78 L 664 67 L 642 63 Z M 621 113 L 638 114 L 648 117 L 659 123 L 670 133 L 677 143 L 683 156 L 689 185 L 689 214 L 687 228 L 684 239 L 677 254 L 668 266 L 654 277 L 641 282 L 628 284 L 612 283 L 602 280 L 588 272 L 577 261 L 571 252 L 564 236 L 559 206 L 561 174 L 565 159 L 572 144 L 581 132 L 596 120 L 609 115 Z M 1169 57 L 1161 64 L 1156 74 L 1156 89 L 1160 98 L 1168 106 L 1180 111 L 1196 111 L 1208 106 L 1216 98 L 1220 88 L 1220 75 L 1214 63 L 1205 56 L 1196 53 L 1180 53 Z M 932 53 L 932 329 L 989 329 L 990 309 L 995 316 L 1004 324 L 1024 333 L 1052 334 L 1062 332 L 1079 325 L 1088 319 L 1099 308 L 1108 295 L 1115 280 L 1120 262 L 1122 248 L 1122 213 L 1118 192 L 1110 172 L 1101 159 L 1090 149 L 1074 141 L 1061 138 L 1038 138 L 1022 142 L 1005 152 L 990 169 L 989 53 Z M 1024 181 L 1040 183 L 1049 188 L 1054 193 L 1061 205 L 1065 224 L 1065 240 L 1063 255 L 1056 273 L 1043 286 L 1037 289 L 1027 291 L 1015 290 L 1002 283 L 993 272 L 988 257 L 988 219 L 991 207 L 996 198 L 1003 190 L 1012 184 Z M 51 17 L 35 23 L 22 35 L 15 49 L 14 69 L 20 85 L 32 98 L 43 104 L 50 106 L 66 106 L 82 100 L 95 88 L 102 74 L 103 53 L 97 38 L 85 25 L 71 18 Z M 177 0 L 140 7 L 110 19 L 122 35 L 125 42 L 143 35 L 162 30 L 187 27 L 201 27 L 227 30 L 243 34 L 264 42 L 284 53 L 304 68 L 326 91 L 336 105 L 346 123 L 355 146 L 360 168 L 362 187 L 361 214 L 355 243 L 350 257 L 336 284 L 322 303 L 298 326 L 274 342 L 249 353 L 221 360 L 187 362 L 158 358 L 132 350 L 105 336 L 85 321 L 68 304 L 53 284 L 39 257 L 30 227 L 27 202 L 27 187 L 30 162 L 35 143 L 41 128 L 24 120 L 18 115 L 16 116 L 12 125 L 2 162 L 0 177 L 0 212 L 7 249 L 14 269 L 22 286 L 45 320 L 69 344 L 103 367 L 120 375 L 140 382 L 177 389 L 212 389 L 249 382 L 269 375 L 286 367 L 320 344 L 344 320 L 367 286 L 375 269 L 382 249 L 389 212 L 389 177 L 382 140 L 375 120 L 367 103 L 344 69 L 320 45 L 286 22 L 269 14 L 249 7 L 212 0 Z"/>
  <path fill="#ff5a11" fill-rule="evenodd" d="M 183 100 L 165 104 L 146 113 L 135 121 L 121 136 L 112 150 L 105 168 L 102 182 L 102 207 L 105 221 L 112 239 L 121 253 L 135 268 L 146 276 L 165 285 L 183 289 L 205 289 L 223 285 L 242 276 L 253 268 L 267 253 L 276 239 L 283 221 L 286 207 L 286 182 L 283 168 L 276 150 L 267 136 L 253 121 L 242 113 L 223 104 L 205 100 Z M 1907 68 L 1886 109 L 1857 154 L 1828 193 L 1797 230 L 1797 275 L 1907 275 L 1908 329 L 1959 329 L 1959 277 L 1961 275 L 1990 275 L 1990 233 L 1959 232 L 1959 68 Z M 1907 143 L 1908 232 L 1848 233 L 1847 232 L 1866 208 L 1890 173 Z M 1612 82 L 1607 86 L 1607 136 L 1618 127 L 1637 116 L 1657 110 L 1674 109 L 1689 112 L 1695 115 L 1703 123 L 1707 133 L 1708 148 L 1705 160 L 1701 168 L 1691 181 L 1677 194 L 1634 227 L 1624 237 L 1609 257 L 1601 273 L 1596 289 L 1595 329 L 1765 329 L 1765 282 L 1656 281 L 1659 271 L 1677 252 L 1729 213 L 1741 201 L 1752 186 L 1760 170 L 1765 148 L 1765 129 L 1763 117 L 1759 105 L 1754 96 L 1744 84 L 1730 74 L 1712 67 L 1696 64 L 1667 64 L 1649 67 L 1630 73 Z"/>
</svg>
